<?xml version="1.0" encoding="utf-8"?>
<svg viewBox="0 0 500 500" xmlns="http://www.w3.org/2000/svg">
  <circle style="fill: rgb(151, 127, 65);" cx="254.787" cy="227.541" r="39.914"/>
  <ellipse style="fill: rgb(151, 127, 65);" cx="254.05" cy="306.333" rx="44.919" ry="55.228"/>
  <path style="stroke: rgb(0, 0, 0); fill: none; stroke-width: 13px;" d="M 217.968 216.495 L 163.82 195.456 L 127.393 124.447"/>
  <path style="stroke: rgb(0, 0, 0); fill: none; stroke-width: 13px;" d="M 220.177 236.009 L 146.219 225.069 L 96.465 188.144"/>
  <path style="stroke: rgb(0, 0, 0); fill: none; stroke-width: 13px;" d="M 229.014 254.419 L 145.37 270.745 L 89.103 325.846"/>
  <path style="stroke: rgb(0, 0, 0); fill: none; stroke-width: 13px;" d="M 372.016 124.263 L 322.892 145.302 L 289.845 216.311" transform="matrix(-1, 0, 0, -1, 661.860992, 340.574005)"/>
  <path style="stroke: rgb(0, 0, 0); fill: none; stroke-width: 13px;" d="M 409.61 202.687 L 336.814 210.261 L 287.841 235.825" transform="matrix(-1, 0, 0, -1, 697.450989, 438.511993)"/>
  <path style="stroke: rgb(0, 0, 0); fill: none; stroke-width: 13px;" d="M 396.909 319.771 L 326.911 304.792 L 279.824 254.235" transform="matrix(-1, 0, 0, -1, 676.733002, 574.005997)"/>
  <path style="stroke: rgb(0, 0, 0); fill: none; stroke-width: 10px;" d="M 240.816 195.877 L 222.387 170.84 L 242.723 149.485"/>
  <path style="stroke: rgb(0, 0, 0); fill: none; stroke-width: 10px;" d="M 268.621 197.349 L 284.978 175.994 L 272.71 150.958"/>
  <ellipse style="fill: rgb(216, 216, 216);" cx="238.218" cy="204.345" rx="7.732" ry="5.523"/>
  <ellipse style="fill: rgb(216, 216, 216);" cx="270.987" cy="203.976" rx="7.732" ry="6.259"/>
</svg>