<?xml version="1.0" encoding="utf-8"?>
<svg viewBox="0 0 500 500" xmlns="http://www.w3.org/2000/svg">
  <path style="stroke: rgb(0, 0, 0); stroke-width: 10px;" d="M 234.167 328.669 L 236.376 345.605"/>
  <path style="fill: rgb(216, 216, 216); stroke: rgb(0, 0, 0);" d="M 226.067 316.887"/>
  <path style="fill: rgb(216, 216, 216); stroke: rgb(0, 0, 0);" d="M 230.486 327.196"/>
  <path style="stroke: rgb(0, 0, 0); fill: none; stroke-width: 5px;" d="M 221.65 271.969 L 161.034 279.324 L 128.13 273.441"/>
  <path style="fill: rgb(216, 216, 216); stroke: rgb(0, 0, 0);" d="M 537.555 260.923"/>
  <path style="fill: rgb(216, 216, 216); stroke: rgb(0, 0, 0);" d="M 150.957 255.032"/>
  <path style="stroke: rgb(0, 0, 0); fill: none; stroke-width: 5px;" d="M 228.645 227.786 L 176.688 218.71 L 153.534 185.076"/>
  <path style="stroke: rgb(0, 0, 0); fill: none; stroke-width: 5px;" d="M 233.064 313.941 L 166.845 320.357 L 137.335 344.133"/>
  <path style="stroke: rgb(0, 0, 0); stroke-width: 10px;" d="M 235.273 306.945 L 236.009 289.273" transform="matrix(-1, 0, 0, -1, 471.281998, 596.218018)"/>
  <path style="stroke: rgb(0, 0, 0); fill: none; stroke-width: 5px;" d="M 322.901 350.761 L 270.435 343.875 L 247.054 318.36" transform="matrix(-1, 0, 0, -1, 569.955002, 669.120972)"/>
  <path style="stroke: rgb(0, 0, 0); fill: none; stroke-width: 5px;" d="M 331.13 301.055 L 276.156 294.483 L 251.657 270.128" transform="matrix(-1, 0, 0, -1, 582.787003, 571.182983)"/>
  <path style="stroke: rgb(0, 0, 0); fill: none; stroke-width: 5px;" d="M 346.281 248.035 L 281.629 242.715 L 252.817 222.999" transform="matrix(-1, 0, 0, -1, 599.098007, 471.033997)"/>
  <path style="stroke: rgb(0, 0, 0); stroke-width: 12px;" d="M 245.811 183.157 L 248.02 200.093" transform="matrix(0.990275, 0.139121, -0.139121, 0.990275, 29.060205, -32.48764)"/>
  <path style="stroke: rgb(0, 0, 0); fill: none; stroke-width: 5px;" d="M 242.268 157.503 L 219.855 142.324 L 209.867 86.074"/>
  <path style="stroke: rgb(0, 0, 0); fill: none; stroke-width: 5px;" d="M 295.288 96.015 L 270.838 111.194 L 259.942 167.444" transform="matrix(-1, 0, 0, -1, 555.22998, 263.459)"/>
  <path d="M 229.1 180.298 C 229.1 174.347 229.93 154.848 234.991 152.317 C 247.211 146.207 258.073 148.153 265.919 155.999 C 268.497 158.577 265.678 168.276 268.128 170.727 C 268.58 171.179 270.33 178.104 269.601 179.562 C 264.247 190.271 253.178 185.453 240.882 185.453 C 238.76 185.453 233.889 184.532 232.046 185.453 C 231.861 185.546 229.96 187.786 229.1 186.926 C 228.224 186.049 228.364 181.018 228.364 179.562" style="stroke: rgb(0, 0, 0); fill: rgb(57, 51, 51);" transform="matrix(0.953937, 0.300008, -0.300008, 0.953937, 61.849593, -66.986984)"/>
  <path d="M 271.559 160.813 C 271.559 153.385 269.65 128.849 259.041 139.458 C 257.2 141.299 257.2 144.981 255.359 146.822 C 252.336 149.845 260.913 148.694 261.25 149.031 C 263.01 150.791 263.459 151.947 263.459 154.922" style="stroke: rgb(0, 0, 0); fill: rgb(57, 51, 51);" transform="matrix(0.953937, 0.300008, -0.300008, 0.953937, 56.76966, -72.087807)"/>
  <path d="M 239.726 154.632 C 239.726 144.392 239.477 142.238 247.09 138.431 C 248.609 137.672 253.572 133.868 254.454 134.749 C 261.214 141.51 248.939 150.95 244.881 150.95" style="stroke: rgb(0, 0, 0); fill: rgb(57, 51, 51);" transform="matrix(0.953937, 0.300008, -0.300008, 0.953937, 54.816258, -67.765905)"/>
  <path d="M 239.297 338.851 C 228.586 347.42 216.28 367.022 224.595 383.653 C 225.394 385.252 227.582 385.208 228.277 386.598 C 229.853 389.751 244.404 395.398 247.423 396.908 C 247.8 397.096 252.864 397.357 253.314 396.908 C 262.376 387.846 260.713 365.315 254.786 353.461 C 252.626 349.141 255.361 343.726 251.841 340.207 C 249.477 337.843 245.214 341.559 245.214 343.889" style="stroke: rgb(0, 0, 0); fill: rgb(57, 51, 51);" transform="matrix(0.946864, -0.321635, 0.321635, 0.946864, -105.668336, 96.992944)"/>
  <path d="M 226.248 360.513 C 229.055 360.513 242.633 363.275 244.658 361.25 C 244.99 360.918 244.827 359.041 245.394 359.041" style="stroke: rgb(0, 0, 0); fill: none;" transform="matrix(0.946864, -0.321635, 0.321635, 0.946864, -103.424048, 95.004765)"/>
  <path d="M 225.959 371.485 C 234.368 371.485 241.245 370.012 249.523 370.012" style="stroke: rgb(0, 0, 0); fill: rgb(216, 216, 216);" transform="matrix(0.946864, -0.321635, 0.321635, 0.946864, -106.613004, 96.165995)"/>
  <path d="M 233.679 376.849 C 238.322 378.01 250.045 383.762 255.034 381.268 C 257.196 380.186 259.243 378.322 261.661 378.322" style="stroke: rgb(0, 0, 0); fill: none;" transform="matrix(0.946864, -0.321635, 0.321635, 0.946864, -108.857998, 99.817561)"/>
  <path style="stroke: rgb(0, 0, 0); fill: rgb(57, 51, 51);" d="M 258.587 222.627 C 258.587 222.627 266.1 193.73 247.658 195.832 C 229.217 197.934 222.386 212.119 222.386 213.17 C 222.386 214.22 223.751 219.475 223.751 219.475 L 225.8 237.338 L 233.155 248.897 C 233.155 248.897 260.636 249.422 257.903 238.388 C 255.171 227.355 258.587 224.729 258.587 222.627 Z" transform="matrix(0.957096, 0.289771, -0.289771, 0.957096, 74.769829, -60.367364)"/>
  <path style="fill: rgb(216, 216, 216); stroke: rgb(0, 0, 0);" d="M 277.614 262.15"/>
  <path style="fill: rgb(216, 216, 216); stroke: rgb(0, 0, 0);" d="M 251.841 299.705"/>
  <path style="fill: rgb(216, 216, 216); stroke: rgb(0, 0, 0);" d="M 253.314 306.333"/>
  <path style="fill: rgb(216, 216, 216); stroke: rgb(0, 0, 0);" d="M 270.987 321.06"/>
  <path style="stroke: rgb(0, 0, 0); fill: rgb(57, 51, 51);" d="M 252.158 267.607 C 252.158 267.607 260.112 239.911 240.59 241.926 C 221.068 243.94 213.837 257.536 213.837 258.543 C 213.837 259.55 215.282 264.586 215.282 264.586 L 217.451 281.707 L 227.575 292.786 C 227.575 292.786 254.327 293.289 251.435 282.714 C 248.542 272.139 252.158 269.622 252.158 267.607 Z"/>
  <path style="stroke: rgb(0, 0, 0); fill: rgb(57, 51, 51);" d="M 248.896 312.96 C 248.896 312.96 242.268 296.023 233.432 303.387 C 224.596 310.751 216.495 306.333 219.44 319.587 C 222.385 332.841 232.695 330.633 232.695 330.633 C 232.695 330.633 251.841 331.37 248.896 325.478 C 245.951 319.586 249.632 312.96 248.896 312.96 Z"/>
  <path style="fill: rgb(216, 216, 216); stroke: rgb(0, 0, 0);" d="M 468.336 389.543"/>
  <path style="fill: rgb(216, 216, 216); stroke: rgb(0, 0, 0);" d="M 401.325 278.351"/>
  <path style="fill: rgb(216, 216, 216); stroke: rgb(0, 0, 0);" d="M 343.152 305.596"/>
</svg>