<?xml version="1.0" encoding="utf-8"?>
<svg viewBox="0 0 500 500" xmlns="http://www.w3.org/2000/svg">
  <circle style="" cx="245.95" cy="199.558" r="34.922"/>
  <path style="fill: rgb(216, 216, 216); stroke: rgb(0, 0, 0);" d="M 212.813 139.912"/>
  <path style="stroke: rgb(0, 0, 0); fill: none;" d="M 279.822 254.787 C 273.564 236.012 340.457 229.033 349.778 256.996"/>
  <path style="fill: rgb(216, 216, 216); stroke: rgb(0, 0, 0);" d="M 356.406 208.395"/>
  <path style="stroke: rgb(0, 0, 0); fill: none;" d="M 280.772 279.146 C 274.514 260.371 337.725 256.337 347.046 284.3"/>
  <path style="fill: rgb(216, 216, 216); stroke: rgb(0, 0, 0);" d="M 356.406 208.395" transform="matrix(1, 0, 0, 1, 260.154012, 50.868447)"/>
  <path style="stroke: rgb(0, 0, 0); fill: none;" d="M 276.353 303.815 C 270.095 285.04 334.779 286.161 344.1 314.124"/>
  <path style="stroke: rgb(0, 0, 0); fill: none;" d="M 148.118 242.85 C 141.86 224.075 206.544 225.196 215.865 253.159"/>
  <path style="stroke: rgb(0, 0, 0); fill: none;" d="M 146.122 265.736 C 142.81 252.116 204.548 248.082 213.869 276.045"/>
  <path style="stroke: rgb(0, 0, 0); fill: none;" d="M 143.982 293.334 C 140.754 274.82 206.163 275.925 210.971 303.5" transform="matrix(0.98611, -0.166094, 0.166094, 0.98611, -46.066104, 33.526666)"/>
  <ellipse style="" cx="246.318" cy="273.564" rx="40.87" ry="53.387"/>
  <path style="fill: rgb(253, 253, 253);" d="M 256.259 237.85 C 282.2 240.012 277.34 308.09 256.259 306.333"/>
  <path style="fill: rgb(253, 253, 253);" d="M 218.707 308.19 C 241.386 306.028 237.137 237.95 218.707 239.707" transform="matrix(-1, 0, 0, -1, 452.870834, 547.863617)"/>
  <ellipse style="fill: rgb(216, 216, 216);" cx="230.486" cy="178.571" rx="7.364" ry="4.786"/>
  <ellipse style="fill: rgb(216, 216, 216);" cx="261.046" cy="180.044" rx="7.732" ry="4.05"/>
</svg>